<svg width="48" height="48" viewBox="0 0 48 48" fill="none" xmlns="http://www.w3.org/2000/svg">
<path d="M23.996 4C18.296 4 14.602 8.038 10.232 9.51C8.45597 10.11 7.56597 10.408 7.20797 10.83C6.84797 11.25 6.74197 11.868 6.53197 13.1C4.27797 26.292 9.20397 38.488 20.95 43.236C22.212 43.746 22.844 44 24.002 44C25.16 44 25.794 43.744 27.056 43.234C38.802 38.488 43.722 26.292 41.468 13.1C41.256 11.868 41.152 11.25 40.792 10.828C40.432 10.406 39.544 10.108 37.768 9.51C33.396 8.038 29.696 4 23.996 4Z" stroke="black" stroke-width="2" stroke-linecap="round" stroke-linejoin="round"/>
<path d="M24 32C24.28 32 24.54 31.872 25.058 31.62L29.23 29.574C31.076 28.668 32 28.216 32 27.5V18.5M24 32C23.72 32 23.46 31.872 22.942 31.62L18.77 29.574C16.924 28.668 16 28.216 16 27.5V18.5M24 32V23M32 18.5C32 17.784 31.076 17.332 29.23 16.426L25.06 14.382C24.538 14.128 24.278 14 24 14C23.72 14 23.46 14.128 22.942 14.38L18.77 16.428C16.924 17.332 16 17.784 16 18.5M32 18.5C32 19.216 31.076 19.668 29.23 20.574L25.058 22.618C24.538 22.872 24.278 23 24 23M16 18.5C16 19.216 16.924 19.668 18.77 20.574L22.942 22.618C23.462 22.872 23.722 23 24 23" stroke="black" stroke-width="2" stroke-linecap="round" stroke-linejoin="round"/>
</svg>
