<svg width="48" height="48" viewBox="0 0 48 48" fill="none" xmlns="http://www.w3.org/2000/svg">
<path d="M34.956 18.0001H35C37.0184 17.999 38.9785 18.6764 40.5656 19.9235C42.1526 21.1706 43.2744 22.915 43.7507 24.8764C44.227 26.8378 44.0301 28.9024 43.1917 30.7384C42.3533 32.5745 40.9221 34.0754 39.1279 35.0001M34.956 18.0001C34.984 17.6708 34.9986 17.3374 35 17.0001C35.0043 14.1624 33.9119 11.4329 31.951 9.38177C29.9901 7.33066 27.3124 6.11669 24.4774 5.99353C21.6424 5.87037 18.8695 6.84755 16.7381 8.72088C14.6067 10.5942 13.2817 13.2187 13.04 16.0461M34.956 18.0001C34.7546 20.2029 33.8938 22.2939 32.486 24.0001M13.04 16.0461C10.8684 16.2545 8.82462 17.1673 7.22012 18.6453C5.61562 20.1234 4.53846 22.0855 4.15284 24.2327C3.76723 26.3798 4.09432 28.5942 5.08425 30.5382C6.07419 32.4821 7.67265 34.0491 9.63595 35.0001M13.04 16.0461C13.356 16.0154 13.676 16.0001 14 16.0001C16.252 16.0001 18.33 16.7441 20 18.0001M24 28.0001L24.516 29.3941C25.192 31.2221 25.5299 32.1361 26.1959 32.8021C26.8639 33.4701 27.778 33.8081 29.606 34.4841L31 35.0001L29.606 35.5161C27.778 36.1921 26.864 36.5301 26.198 37.1961C25.53 37.8641 25.192 38.7781 24.516 40.6061L24 42.0001L23.4839 40.6061C22.8079 38.7781 22.47 37.8641 21.804 37.1981C21.136 36.5301 20.2219 36.1921 18.3939 35.5161L17 35.0001L18.3939 34.4841C20.2219 33.8081 21.136 33.4701 21.802 32.8041C22.47 32.1361 22.8079 31.2221 23.4839 29.3941L24 28.0001Z" stroke="black" stroke-width="2" stroke-linecap="round" stroke-linejoin="round"/>
</svg>
