<svg width="48" height="48" viewBox="0 0 48 48" fill="none" xmlns="http://www.w3.org/2000/svg">
<path d="M26 6.004C25.06 6.00133 24.06 6 23 6C14.044 6 9.564 6 6.782 8.782C4 11.564 4 16.042 4 25C4 33.956 4 38.436 6.782 41.218C9.564 44 14.042 44 23 44C31.956 44 36.436 44 39.218 41.218C42 38.436 42 33.958 42 25C42 23.94 41.9987 22.94 41.996 22" stroke="black" stroke-width="2" stroke-linecap="round" stroke-linejoin="round"/>
<path d="M14 35C18.664 30.116 27.286 29.886 32 35M37 4L37.516 5.394C38.192 7.222 38.53 8.136 39.196 8.802C39.864 9.47 40.778 9.808 42.606 10.484L44 11L42.606 11.516C40.778 12.192 39.864 12.53 39.198 13.196C38.53 13.864 38.192 14.778 37.516 16.606L37 18L36.484 16.606C35.808 14.778 35.47 13.864 34.804 13.198C34.136 12.53 33.222 12.192 31.394 11.516L30 11L31.394 10.484C33.222 9.808 34.136 9.47 34.802 8.804C35.47 8.136 35.808 7.222 36.484 5.394L37 4ZM27.99 20C27.99 22.76 25.75 25 22.984 25C22.3267 25.0011 21.6757 24.8725 21.0681 24.6217C20.4606 24.3709 19.9084 24.0028 19.4433 23.5384C18.9782 23.074 18.6091 22.5224 18.3574 21.9153C18.1056 21.3081 17.976 20.6573 17.976 20C17.976 17.24 20.216 15 22.984 15C23.6411 14.9992 24.2919 15.128 24.8993 15.3789C25.5066 15.6298 26.0585 15.998 26.5234 16.4623C26.9883 16.9267 27.3572 17.4782 27.6088 18.0852C27.8605 18.6922 27.99 19.3429 27.99 20Z" stroke="black" stroke-width="2" stroke-linecap="round" stroke-linejoin="round"/>
</svg>
